<svg xmlns="http://www.w3.org/2000/svg" viewBox="0 0 100 400" preserveAspectRatio="none">
  <!-- Flat base color (no top-to-bottom shading). Keep warm so it matches the climber's rock tone. -->
  <rect x="0" y="0" width="100" height="400" fill="#d7dee6"/>

  <!-- Facets: asymmetrical polygons (no circles/round blobs). -->
  <polygon points="0,0 18,0 28,18 14,40 0,32" fill="#f1f5f9" opacity="0.62"/>
  <polygon points="18,0 52,0 46,24 28,18" fill="#e2e8f0" opacity="0.56"/>
  <polygon points="52,0 100,0 100,34 78,44 46,24" fill="#cbd5e1" opacity="0.46"/>

  <polygon points="0,32 14,40 20,72 0,86" fill="#a8b3c2" opacity="0.16"/>
  <polygon points="14,40 44,34 56,60 36,86 20,72" fill="#f1f5f9" opacity="0.40"/>
  <polygon points="44,34 78,44 70,78 56,60" fill="#e2e8f0" opacity="0.44"/>
  <polygon points="78,44 100,34 100,88 86,100 70,78" fill="#cbd5e1" opacity="0.32"/>

  <polygon points="0,86 20,72 34,110 12,132 0,126" fill="#e2e8f0" opacity="0.48"/>
  <polygon points="20,72 36,86 44,120 34,110" fill="#cbd5e1" opacity="0.34"/>
  <polygon points="36,86 70,78 80,112 58,134 44,120" fill="#f1f5f9" opacity="0.30"/>
  <polygon points="70,78 86,100 100,92 100,132 80,112" fill="#cbd5e1" opacity="0.28"/>

  <polygon points="0,126 12,132 18,168 0,184" fill="#a8b3c2" opacity="0.15"/>
  <polygon points="12,132 34,110 52,148 34,178 18,168" fill="#f1f5f9" opacity="0.32"/>
  <polygon points="34,110 58,134 72,168 52,148" fill="#e2e8f0" opacity="0.36"/>
  <polygon points="58,134 80,112 100,132 92,170 72,168" fill="#cbd5e1" opacity="0.26"/>

  <polygon points="0,184 18,168 30,206 10,232 0,226" fill="#e2e8f0" opacity="0.42"/>
  <polygon points="18,168 34,178 44,218 30,206" fill="#cbd5e1" opacity="0.30"/>
  <polygon points="34,178 72,168 84,210 66,236 44,218" fill="#f1f5f9" opacity="0.28"/>
  <polygon points="72,168 92,170 100,198 100,242 84,210" fill="#cbd5e1" opacity="0.22"/>

  <polygon points="0,226 10,232 16,270 0,288" fill="#a8b3c2" opacity="0.14"/>
  <polygon points="10,232 30,206 46,246 34,280 16,270" fill="#f1f5f9" opacity="0.30"/>
  <polygon points="30,206 66,236 72,276 46,246" fill="#e2e8f0" opacity="0.34"/>
  <polygon points="66,236 84,210 100,242 90,286 72,276" fill="#cbd5e1" opacity="0.26"/>

  <polygon points="0,288 16,270 28,310 10,338 0,332" fill="#e2e8f0" opacity="0.40"/>
  <polygon points="16,270 34,280 44,322 28,310" fill="#cbd5e1" opacity="0.28"/>
  <polygon points="34,280 72,276 84,318 60,344 44,322" fill="#f1f5f9" opacity="0.26"/>
  <polygon points="72,276 90,286 100,320 100,356 84,318" fill="#cbd5e1" opacity="0.22"/>

  <polygon points="0,332 10,338 18,372 0,400" fill="#a8b3c2" opacity="0.14"/>
  <polygon points="10,338 28,310 46,352 30,388 18,372" fill="#f1f5f9" opacity="0.26"/>
  <polygon points="28,310 60,344 72,376 46,352" fill="#e2e8f0" opacity="0.32"/>
  <polygon points="60,344 84,318 100,356 100,400 72,376" fill="#cbd5e1" opacity="0.22"/>

  <!-- Seams/cracks: angular paths (still no round geometry). -->
  <path d="M8 22 L22 56 L16 84 L24 120 L12 150" fill="none" stroke="#94a3b8" stroke-opacity="0.14" stroke-width="1"/>
  <path d="M64 18 L52 46 L62 88 L54 130 L72 168" fill="none" stroke="#94a3b8" stroke-opacity="0.13" stroke-width="1"/>
  <path d="M86 110 L74 140 L86 186 L78 224 L92 268 L82 318" fill="none" stroke="#94a3b8" stroke-opacity="0.12" stroke-width="1"/>
</svg>
